<?xml version="1.0" encoding="utf-8"?>
<!-- Generator: Adobe Illustrator 25.2.3, SVG Export Plug-In . SVG Version: 6.00 Build 0)  -->
<svg version="1.1" id="Layer_1" xmlns="http://www.w3.org/2000/svg" xmlns:xlink="http://www.w3.org/1999/xlink" x="0px" y="0px"
	 viewBox="0 0 200 200" style="enable-background:new 0 0 200 200;" xml:space="preserve">
<style type="text/css">
	.st0{fill:#FFFFFF;}
</style>
<g>
	<g>
		<path class="st0" d="M169.2,68.2c-7.6-5.8-17.5-8.8-29.5-8.8H80.6v9.2l1.4,0.1c1.6,0.1,3.5,0.3,5.6,0.7c2.1,0.3,4.3,0.8,6.4,1.6
			c1.8,0.7,2.9,1.6,3.3,2.8c0.5,1.5,0.8,3.2,0.8,5.1v91c0,2.1-0.3,3.7-1,5c-0.6,1.2-1.7,2.1-3.2,2.7c-0.7,0.3-2.1,0.7-5.2,1
			c-2.4,0.3-4.6,0.5-6.1,0.6l-1.4,0.1v9.2h57.1v-9.3l-1.5,0c-2.2-0.1-4.6-0.3-7.3-0.6c-2.6-0.3-4.4-0.7-5.3-1.1
			c-1.8-0.7-2.9-1.6-3.4-2.8c-0.6-1.4-0.9-3-0.9-4.9v-36.7h12.6c6.2,0,12.1-0.8,17.6-2.4c5.5-1.6,10.7-4.1,15.3-7.5
			c4.7-3.4,8.5-7.9,11.2-13.1c2.7-5.3,4-11.4,4-18.2C180.7,82.2,176.8,74.2,169.2,68.2z M116.5,129.7v40.2c0,2.3,0.4,4.4,1.2,6.3
			c0.9,2.1,2.7,3.6,5.3,4.7c1.2,0.5,3.2,0.9,6.1,1.3c2,0.3,3.9,0.5,5.7,0.6v2.4H84.7v-2.5c1.1-0.1,2.5-0.3,4.4-0.5
			c3-0.3,5-0.7,6.2-1.3c2.2-1,3.8-2.4,4.8-4.3c1-1.8,1.4-4,1.4-6.6v-91c0-2.3-0.3-4.4-1-6.3c-0.8-2.2-2.6-3.9-5.4-5
			c-2.3-0.8-4.7-1.4-7.1-1.7c-1.6-0.2-2.9-0.4-4-0.5v-2.5h55.6v0c11.2,0,20.4,2.7,27.4,8.1c6.8,5.2,10.2,12.3,10.2,21
			c0,6.2-1.2,11.8-3.6,16.6c-2.4,4.8-5.8,8.8-10.1,11.9c-4.3,3.2-9.1,5.5-14.2,7c-5.2,1.5-10.8,2.2-16.6,2.2H116.5z"/>
		<path class="st0" d="M153.8,114.7c2.2-3.1,3.6-6.3,4.3-9.6c0.7-3.2,1-6.1,1-8.6c0-3.5-0.4-7.1-1.2-10.8c-0.9-3.8-2.4-7.1-4.5-9.9
			c-2.3-3.1-5.3-5.5-9-7.1c-3.6-1.7-8.2-2.5-13.5-2.5h-14.5V126h11.1c6.7,0,12.2-1.1,16.5-3.2C148.4,120.7,151.6,117.9,153.8,114.7z
			 M120,122.5V69.7h11c4.8,0,8.8,0.7,12,2.2c3.1,1.4,5.7,3.5,7.6,6c1.8,2.4,3.1,5.3,3.9,8.6c0.8,3.4,1.2,6.7,1.2,10
			c0,2.3-0.3,5-0.9,7.9c-0.6,2.8-1.9,5.6-3.8,8.3c-1.9,2.7-4.7,5.1-8.4,6.9c-3.8,1.9-8.8,2.8-14.9,2.8H120z"/>
	</g>
	<path class="st0" d="M140.3,23.4c-10.3-7.9-23.7-11.9-40.1-11.9H19.3v8.9c2.2,0.2,4.9,0.5,8,0.9s6.3,1.2,9.4,2.3
		c3.1,1.2,5,2.9,5.9,5.2c0.8,2.3,1.2,5,1.2,7.9v127.8c0,3.2-0.6,5.9-1.7,8s-2.9,3.7-5.4,4.8c-1.5,0.7-4.1,1.2-7.9,1.6
		c-3.8,0.4-6.7,0.7-8.7,0.9v8.9h76v-8.9c-3.2-0.1-6.6-0.4-10.4-0.9c-3.8-0.5-6.4-1-7.9-1.6c-3-1.2-5-2.9-5.9-5.1s-1.4-4.8-1.4-7.7
		v-38.8v-14.9V99.9v-6.5V21.7h17.6c7.1,0,13,1.1,17.7,3.2c4.7,2.2,8.6,5.2,11.5,9.1c2.8,3.7,4.7,7.9,5.8,12.9
		c1.1,4.9,1.7,9.7,1.7,14.5c0,3.4-0.5,7.3-1.4,11.5c-0.9,4.3-2.8,8.4-5.6,12.4c-2.8,4.2-7.1,7.6-12.7,10.4c-1.9,0.9-4,1.7-6.3,2.3
		v12.3c5.4-0.5,10.6-1.4,15.6-2.9c7.6-2.2,14.5-5.6,20.8-10.2c6.4-4.7,11.4-10.6,15-17.7s5.4-15.3,5.4-24.5
		C155.7,41.9,150.6,31.3,140.3,23.4L140.3,23.4z"/>
	<circle class="st0" cx="84.3" cy="104.7" r="6.1"/>
</g>
</svg>
